<svg width="128" height="128" viewBox="0 0 128 128" fill="none" xmlns="http://www.w3.org/2000/svg">
<rect width="128" height="128" fill="white"/>
<path fill-rule="evenodd" clip-rule="evenodd" d="M91.277 38.7107C90.623 38.7439 89.965 38.7607 89.303 38.7607C79.486 38.7607 70.53 35.0698 63.749 29C56.967 35.0696 48.012 38.7603 38.194 38.7603C37.532 38.7603 36.874 38.7435 36.221 38.7103C35.424 41.7884 35 45.0166 35 48.344C35 66.205 47.216 81.213 63.749 85.468C80.282 81.213 92.498 66.205 92.498 48.344C92.498 45.0167 92.074 41.7887 91.277 38.7107ZM63.749 77.988C76.264 73.947 85.311 62.194 85.311 48.344C85.311 47.475 85.275 46.6148 85.206 45.7656C77.3 45.0592 69.971 42.3293 63.749 38.1019C57.526 42.3291 50.197 45.0588 42.292 45.7652C42.223 46.6146 42.187 47.474 42.187 48.344C42.187 62.194 51.233 73.947 63.749 77.988Z" fill="#9333EA"/>
<path d="M29.2631 99.8811C27.9949 99.8811 27.0101 100.354 26.4423 101.206V96.3597H24V109.613H26.4423V104.501C26.4423 102.854 27.3322 102.153 28.5248 102.153C29.6229 102.153 30.3992 102.816 30.3992 104.103V109.613H32.8415V103.8C32.8415 101.282 31.27 99.8811 29.2631 99.8811Z" fill="#111827"/>
<path d="M36.6118 105.883H43.7493C43.8061 105.561 43.8441 105.239 43.8441 104.879C43.8441 102.096 41.8561 99.8811 39.054 99.8811C36.0819 99.8811 34.0558 102.058 34.0558 104.879C34.0558 107.701 36.0627 109.877 39.2437 109.877C41.0609 109.877 42.4811 109.139 43.3707 107.852L41.4018 106.716C40.9853 107.265 40.2281 107.663 39.2813 107.663C37.994 107.663 36.9527 107.132 36.6118 105.883ZM36.5741 103.99C36.8579 102.778 37.7478 102.077 39.054 102.077C40.0765 102.077 41.0989 102.626 41.4018 103.99H36.5741Z" fill="#111827"/>
<path d="M47.6129 101.774V100.146H45.1702V109.612H47.6129V105.088C47.6129 103.1 49.222 102.532 50.4906 102.683V99.957C49.2976 99.957 48.1051 100.487 47.6129 101.774Z" fill="#111827"/>
<path d="M55.695 109.877C58.4778 109.877 60.712 107.701 60.712 104.879C60.712 102.058 58.4778 99.8811 55.695 99.8811C52.9118 99.8811 50.6968 102.058 50.6968 104.879C50.6968 107.701 52.9118 109.877 55.695 109.877ZM55.695 107.492C54.256 107.492 53.139 106.413 53.139 104.879C53.139 103.346 54.256 102.267 55.695 102.267C57.1528 102.267 58.2697 103.346 58.2697 104.879C58.2697 106.413 57.1528 107.492 55.695 107.492Z" fill="#111827"/>
<path d="M63.263 99.0103C64.0961 99.0103 64.7776 98.3287 64.7776 97.5146C64.7776 96.7005 64.0961 96 63.263 96C62.449 96 61.7675 96.7005 61.7675 97.5146C61.7675 98.3287 62.449 99.0103 63.263 99.0103ZM62.0513 109.613H64.4935V100.146H62.0513V109.613Z" fill="#111827"/>
<path d="M70.8562 109.877C72.7118 109.877 74.321 108.893 75.1349 107.416L73.0148 106.205C72.6358 106.981 71.8219 107.454 70.8374 107.454C69.3796 107.454 68.3003 106.375 68.3003 104.879C68.3003 103.365 69.3796 102.286 70.8374 102.286C71.803 102.286 72.617 102.778 72.9956 103.554L75.0973 102.323C74.321 100.866 72.7118 99.8811 70.8562 99.8811C67.9786 99.8811 65.858 102.058 65.858 104.879C65.858 107.701 67.9786 109.877 70.8562 109.877Z" fill="#111827"/>
<path d="M80.4063 109.877C83.1891 109.877 85.4233 107.701 85.4233 104.879C85.4233 102.058 83.1891 99.8811 80.4063 99.8811C77.6231 99.8811 75.4081 102.058 75.4081 104.879C75.4081 107.701 77.6231 109.877 80.4063 109.877ZM80.4063 107.492C78.9673 107.492 77.8504 106.413 77.8504 104.879C77.8504 103.346 78.9673 102.267 80.4063 102.267C81.8641 102.267 82.981 103.346 82.981 104.879C82.981 106.413 81.8641 107.492 80.4063 107.492Z" fill="#111827"/>
<path d="M92.0261 99.8811C90.7575 99.8811 89.7731 100.355 89.2049 101.206V100.146H86.7626V109.613H89.2049V104.501C89.2049 102.854 90.0949 102.153 91.2878 102.153C92.3858 102.153 93.1618 102.816 93.1618 104.103V109.613H95.6041V103.8C95.6041 101.282 94.033 99.8811 92.0261 99.8811Z" fill="#111827"/>
<path d="M99.564 102.835C99.564 102.323 100.056 102.058 100.662 102.058C101.362 102.058 101.893 102.418 102.177 103.024L104.259 101.888C103.521 100.582 102.196 99.8811 100.662 99.8811C98.7121 99.8811 97.0649 100.96 97.0649 102.892C97.0649 106.223 101.949 105.466 101.949 106.849C101.949 107.398 101.419 107.663 100.643 107.663C99.6965 107.663 99.0526 107.208 98.7877 106.432L96.6672 107.624C97.3487 109.082 98.7497 109.877 100.643 109.877C102.669 109.877 104.449 108.893 104.449 106.849C104.449 103.365 99.564 104.236 99.564 102.835Z" fill="#111827"/>
<path d="M62.4151 17.4791C62.4143 17.4782 62.4134 17.4773 62.4125 17.4764C62.4107 17.4746 62.409 17.4728 62.4072 17.471C62.3949 17.4584 62.3828 17.4456 62.3708 17.4327C62.2431 17.2955 62.1329 17.1444 62.0418 16.9829C62.0752 16.9699 62.1099 16.9602 62.1454 16.9539C62.1782 16.9481 62.2117 16.9453 62.2455 16.9455L62.2541 16.9456H62.2627H62.2761H62.4126H62.4156H62.5208L62.4167 17.4712L62.4151 17.4791ZM62.4167 17.4729L62.5212 16.9456H62.7756V17.1321V17.1542V17.4314V17.4317V17.5071V17.5075V17.5879L62.7673 17.6001L62.732 17.6525L62.6883 17.7175C62.6084 17.658 62.532 17.5931 62.4596 17.5232C62.4594 17.523 62.4592 17.5228 62.459 17.5226C62.4538 17.5176 62.4487 17.5126 62.4436 17.5076C62.4434 17.5074 62.4433 17.5073 62.4431 17.5071C62.4406 17.5047 62.4381 17.5022 62.4356 17.4997C62.4355 17.4996 62.4354 17.4995 62.4354 17.4994C62.4348 17.4988 62.4342 17.4983 62.4336 17.4977C62.4299 17.494 62.4262 17.4903 62.4225 17.4866C62.4206 17.4846 62.4187 17.4827 62.4167 17.4807C62.4163 17.4803 62.4159 17.4798 62.4154 17.4794L62.4167 17.4729ZM74.8614 12.7647L72.3929 12.3692C72.1891 13.641 71.7164 14.8454 71.016 15.9074C71.0002 15.8328 70.9836 15.7583 70.9659 15.6841C70.7843 14.8645 70.4857 14.0829 70.0845 13.3606C70.9026 13.1109 71.6831 12.7532 72.4052 12.2976C72.4036 12.3069 72.4019 12.3161 72.4003 12.3254L74.8614 12.7647Z" stroke="#CBD5E1" stroke-opacity="0.14" stroke-width="5"/>
<path d="M21 24H26V22C26 20.3431 24.6569 19 23 19C22.0444 19 21.1931 19.4468 20.6438 20.1429L21 24ZM21 24H11H21ZM21 24V22C21 21.3438 20.8736 20.717 20.6438 20.1429L21 24ZM11 24H6V22C6 20.3431 7.3431 19 9 19C9.9556 19 10.8069 19.4468 11.3562 20.1429L11 24ZM11 24V22C11 21.3438 11.1264 20.717 11.3562 20.1429L11 24ZM11.3562 20.1429C12.0935 18.301 13.8948 17 16 17C18.1052 17 19.9065 18.301 20.6438 20.1429H11.3562ZM19 11C19 12.6569 17.6569 14 16 14C14.3431 14 13 12.6569 13 11C13 9.34315 14.3431 8 16 8C17.6569 8 19 9.34315 19 11ZM25 14C25 15.1046 24.1046 16 23 16C21.8954 16 21 15.1046 21 14C21 12.8954 21.8954 12 23 12C24.1046 12 25 12.8954 25 14ZM11 14C11 15.1046 10.1046 16 9 16C7.8954 16 7 15.1046 7 14C7 12.8954 7.8954 12 9 12C10.1046 12 11 12.8954 11 14Z" stroke="#CBD5E1" stroke-opacity="0.14" stroke-width="2" stroke-linecap="round" stroke-linejoin="round"/>
<path d="M14 64H18M9 60H23H9ZM9 60C7.8954 60 7 59.1046 7 58C7 56.8954 7.8954 56 9 56H23C24.1046 56 25 56.8954 25 58C25 59.1046 24.1046 60 23 60H9ZM9 60V70C9 71.1046 9.8954 72 11 72H21C22.1046 72 23 71.1046 23 70V60H9Z" stroke="#CBD5E1" stroke-opacity="0.14" stroke-width="2" stroke-linecap="round" stroke-linejoin="round"/>
<path d="M17 118H24M8 106H24H8ZM8 112H24H8Z" stroke="#CBD5E1" stroke-opacity="0.14" stroke-width="2" stroke-linecap="round" stroke-linejoin="round"/>
<path d="M64 60V64L67 67L64 60ZM73 64C73 68.9706 68.9706 73 64 73C59.0294 73 55 68.9706 55 64C55 59.0294 59.0294 55 64 55C68.9706 55 73 59.0294 73 64Z" stroke="#CBD5E1" stroke-opacity="0.14" stroke-width="2" stroke-linecap="round" stroke-linejoin="round"/>
<path d="M56 116H72M56 108H72H56Z" stroke="#CBD5E1" stroke-opacity="0.14" stroke-width="2" stroke-linecap="round" stroke-linejoin="round"/>
<path d="M112 25H115M103 10L106 11L103 10ZM106 11L103 20C104.773 21.3334 107.229 21.3334 109.001 20L106 11ZM106 11L109 20L106 11ZM106 11L112 9L106 11ZM118 11L121 10L118 11ZM118 11L115 20C116.773 21.3334 119.229 21.3334 121.001 20L118 11ZM118 11L121 20L118 11ZM118 11L112 9L118 11ZM112 7V9V7ZM112 25V9V25ZM112 25H109H112Z" stroke="#CBD5E1" stroke-opacity="0.14" stroke-width="2" stroke-linecap="round" stroke-linejoin="round"/>
<path d="M104 68L108.586 63.4142C109.367 62.6332 110.633 62.6332 111.414 63.4142L116 68H104ZM114 66L115.586 64.4142C116.367 63.6332 117.633 63.6332 118.414 64.4142L120 66H114ZM114 60H114.01H114ZM106 72H118C119.105 72 120 71.1046 120 70V58C120 56.8954 119.105 56 118 56H106C104.895 56 104 56.8954 104 58V70C104 71.1046 104.895 72 106 72Z" stroke="#CBD5E1" stroke-opacity="0.14" stroke-width="2" stroke-linecap="round" stroke-linejoin="round"/>
<path d="M117 120L113 116M107 116V104V116ZM107 104L103 108L107 104ZM107 104L111 108L107 104ZM117 108V120V108ZM117 120L121 116L117 120Z" stroke="#CBD5E1" stroke-opacity="0.14" stroke-width="2" stroke-linecap="round" stroke-linejoin="round"/>
</svg>
